<?xml version="1.0" encoding="utf-8"?>
<!-- Generator: Adobe Illustrator 19.0.0, SVG Export Plug-In . SVG Version: 6.00 Build 0)  -->
<svg version="1.1" id="Layer_1" xmlns="http://www.w3.org/2000/svg" xmlns:xlink="http://www.w3.org/1999/xlink" x="0px" y="0px"
	 viewBox="0 0 26 26" style="enable-background:new 0 0 26 26;" xml:space="preserve">
<style type="text/css">
	.st0{fill:#FFFFFF;}
</style>
<g id="XMLID_38_">
	<path id="XMLID_51_" class="st0" d="M4.1,6.3l3.6,3.6l2.2-2.2L6.3,4.1l3.6-3.6H0.5v9.4L4.1,6.3z M19.7,21.9"/>
	<path id="XMLID_48_" class="st0" d="M16.1,25.5h9.4v-9.4l-3.6,3.6l-3.5-3.5l-2.2,2.2l3.5,3.5L16.1,25.5z M16.1,25.5"/>
	<path id="XMLID_44_" class="st0" d="M16.1,7.7l2.2,2.2l3.6-3.6l3.6,3.6V0.5h-9.4l3.6,3.6L16.1,7.7z M0.5,23.3"/>
	<path id="XMLID_39_" class="st0" d="M0.5,25.5h9.4l-3.6-3.6l3.6-3.5l-2.2-2.2l-3.6,3.5l-3.6-3.6V25.5z M16.1,9.9"/>
</g>
</svg>
