<?xml version="1.0" encoding="utf-8"?>
<!-- Generator: Adobe Illustrator 19.0.0, SVG Export Plug-In . SVG Version: 6.00 Build 0)  -->
<svg version="1.1" id="Layer_1" xmlns="http://www.w3.org/2000/svg" xmlns:xlink="http://www.w3.org/1999/xlink" x="0px" y="0px"
	 viewBox="0 0 26 26" style="enable-background:new 0 0 26 26;" xml:space="preserve">
<style type="text/css">
	.st0{fill:#FFFFFF;}
</style>
<g id="XMLID_36_">
	<path id="XMLID_46_" class="st0" d="M19.7,21.9l3.6,3.6l2.2-2.2l-3.6-3.6l3.6-3.6h-9.4v9.4L19.7,21.9z M19.7,21.9"/>
	<path id="XMLID_43_" class="st0" d="M0.5,9.9h9.4V0.5L6.3,4.1L2.7,0.5L0.5,2.7l3.5,3.5L0.5,9.9z M0.5,9.9"/>
	<path id="XMLID_40_" class="st0" d="M0.5,23.3l2.2,2.2l3.6-3.6l3.6,3.6v-9.4H0.5l3.6,3.6L0.5,23.3z M0.5,23.3"/>
	<path id="XMLID_37_" class="st0" d="M16.1,9.9h9.4l-3.6-3.6l3.6-3.5l-2.2-2.2l-3.6,3.5l-3.6-3.6V9.9z M16.1,9.9"/>
</g>
</svg>
